<svg xmlns="http://www.w3.org/2000/svg" width="512" height="512" viewBox="0 0 512 512">
  <rect width="512" height="512" rx="80" fill="#1a1a2e"/>
  <rect x="70" y="180" width="58" height="220" rx="6" fill="#fefefe"/>
  <rect x="134" y="180" width="58" height="220" rx="6" fill="#fefefe"/>
  <rect x="198" y="180" width="58" height="220" rx="6" fill="#fefefe"/>
  <rect x="262" y="180" width="58" height="220" rx="6" fill="#fefefe"/>
  <rect x="326" y="180" width="58" height="220" rx="6" fill="#fefefe"/>
  <rect x="390" y="180" width="58" height="220" rx="6" fill="#fefefe" opacity="0.5"/>
  <rect x="112" y="180" width="40" height="135" rx="4" fill="#1a1a1a"/>
  <rect x="176" y="180" width="40" height="135" rx="4" fill="#1a1a1a"/>
  <rect x="304" y="180" width="40" height="135" rx="4" fill="#1a1a1a"/>
  <rect x="368" y="180" width="40" height="135" rx="4" fill="#1a1a1a"/>
  <text x="256" y="130" text-anchor="middle" font-family="Arial,sans-serif" font-size="72" font-weight="bold" fill="#e94560">♪ C</text>
  <circle cx="98" cy="270" r="14" fill="#3498db" opacity="0.8"/>
  <circle cx="226" cy="270" r="14" fill="#3498db" opacity="0.8"/>
  <circle cx="354" cy="270" r="14" fill="#3498db" opacity="0.8"/>
</svg>
